<?xml version="1.0" standalone="no"?>
<!DOCTYPE svg PUBLIC "-//W3C//DTD SVG 20010904//EN"
 "http://www.w3.org/TR/2001/REC-SVG-20010904/DTD/svg10.dtd">
<svg version="1.0" xmlns="http://www.w3.org/2000/svg"
 width="231.000000pt" height="150.000000pt" viewBox="0 0 231.000000 150.000000"
 preserveAspectRatio="xMidYMid meet">

<g transform="translate(0.000000,150.000000) scale(0.100000,-0.100000)"
fill="#000000" stroke="none">
<path d="M937 1215 c-286 -48 -504 -186 -589 -371 -19 -40 -23 -67 -23 -144 0
-86 3 -101 32 -163 37 -78 118 -165 207 -222 114 -73 291 -132 421 -140 l70
-4 -70 9 c-358 49 -618 245 -651 488 -12 93 33 205 122 301 138 150 363 236
649 251 l140 7 -115 0 c-63 1 -150 -5 -193 -12z"/>
<path d="M1268 1213 c12 -2 30 -2 40 0 9 3 -1 5 -23 4 -22 0 -30 -2 -17 -4z"/>
<path d="M1410 1187 c180 -50 289 -108 390 -207 181 -177 179 -393 -4 -575
-142 -141 -337 -214 -626 -234 -109 -8 -111 -8 -36 -10 204 -3 449 65 601 168
64 44 147 137 178 201 29 59 32 73 32 160 0 87 -3 101 -33 164 -41 87 -138
184 -242 243 -81 46 -228 98 -300 108 -29 4 -15 -3 40 -18z"/>
<path d="M1133 1073 c-27 -5 -29 -16 -8 -33 12 -10 18 -10 30 0 15 13 21 41 8
39 -5 -1 -18 -4 -30 -6z"/>
<path d="M1220 1046 c0 -20 13 -27 30 -15 13 8 13 10 0 19 -21 14 -30 12 -30
-4z"/>
<path d="M955 1000 c-3 -6 1 -7 9 -4 18 7 21 14 7 14 -6 0 -13 -4 -16 -10z"/>
<path d="M1040 1006 c0 -2 7 -7 16 -10 8 -3 12 -2 9 4 -6 10 -25 14 -25 6z"/>
<path d="M915 963 c-10 -15 -19 -40 -19 -55 -1 -19 -5 -27 -14 -23 -7 3 -10 0
-7 -5 3 -6 12 -10 19 -10 22 0 68 -41 62 -56 -3 -8 6 -15 25 -19 20 -5 29 -13
29 -26 0 -10 6 -20 13 -20 45 -5 83 -3 89 5 3 5 56 10 117 11 61 1 114 5 119
10 4 4 -16 5 -45 1 -46 -6 -53 -4 -63 14 -9 16 -8 25 1 36 17 20 54 14 53 -9
-2 -19 7 -22 23 -6 7 7 16 3 31 -15 23 -30 31 -33 28 -11 -1 9 -6 15 -11 15
-7 -1 -16 16 -43 83 -22 52 -81 60 -132 16 l-25 -21 27 16 c27 16 28 15 33 -6
3 -13 4 -42 3 -65 -3 -42 -3 -43 -41 -43 -26 0 -36 4 -31 11 4 7 -7 2 -24 -11
-20 -15 -39 -21 -56 -18 -14 3 -27 0 -29 -6 -3 -8 -9 -7 -18 2 -11 10 -10 15
3 28 13 13 20 14 38 4 31 -17 47 -7 61 39 7 23 17 41 23 41 6 0 5 4 -2 9 -7 4
-14 17 -15 29 0 12 -7 24 -14 27 -10 3 -11 0 -3 -15 5 -10 10 -30 10 -44 0
-23 -2 -25 -19 -15 -25 17 -51 4 -51 -24 0 -15 -8 -27 -22 -33 -32 -14 -53 -7
-68 21 -7 14 -24 32 -37 40 -27 18 -31 60 -7 93 9 13 14 25 11 28 -2 3 -12 -8
-22 -23z m203 -123 c4 -12 2 -13 -9 -3 -9 9 -16 10 -26 2 -7 -7 -13 -7 -13 -2
0 27 40 29 48 3z m-11 -26 c-3 -3 -12 -4 -19 -1 -8 3 -5 6 6 6 11 1 17 -2 13
-5z"/>
<path d="M1080 984 c0 -13 18 -39 24 -34 2 3 -2 14 -10 24 -8 11 -14 16 -14
10z"/>
<path d="M1178 983 c-22 -5 -23 -17 -4 -32 10 -9 16 -8 26 4 15 19 3 33 -22
28z"/>
<path d="M951 957 c-1 -25 17 -57 32 -57 8 0 8 3 -1 9 -11 7 -11 9 2 14 24 9
21 41 -4 34 -10 -3 -21 0 -24 7 -2 6 -5 3 -5 -7z m39 -17 c0 -5 -5 -10 -11
-10 -5 0 -7 5 -4 10 3 6 8 10 11 10 2 0 4 -4 4 -10z"/>
<path d="M1077 903 c-4 -3 -7 -11 -7 -17 0 -6 5 -5 12 2 6 6 9 14 7 17 -3 3
-9 2 -12 -2z"/>
<path d="M1020 835 c-11 -13 -10 -14 4 -9 9 3 16 10 16 15 0 13 -6 11 -20 -6z"/>
<path d="M476 700 c-52 -78 -60 -103 -17 -50 27 31 31 33 55 22 27 -12 27 -11
11 -86 -5 -25 -4 -28 8 -17 36 29 35 201 -1 201 -5 0 -30 -31 -56 -70z m57
-12 c-6 -11 -33 3 -33 16 0 7 6 18 13 25 10 10 13 7 18 -11 3 -13 4 -26 2 -30z"/>
<path d="M1648 744 c-10 -9 -10 -75 -2 -135 6 -44 7 -45 40 -41 36 4 74 41 74
71 0 10 5 7 13 -9 15 -31 49 -37 68 -13 13 17 13 17 -5 3 -16 -13 -20 -12 -37
9 -21 25 -25 66 -9 76 20 12 50 -7 59 -38 l9 -32 1 31 c2 68 -60 88 -89 28
-16 -30 -16 -30 -32 -10 l-16 21 -30 -29 -31 -29 -3 53 c-2 28 -6 48 -10 44z
m81 -78 c7 -8 11 -27 9 -43 -3 -24 -8 -28 -33 -28 -36 0 -44 24 -21 60 19 29
29 31 45 11z"/>
<path d="M597 693 c-10 -19 -28 -114 -24 -125 4 -8 8 -5 12 10 4 12 10 22 13
22 2 0 27 -14 54 -31 45 -27 51 -28 62 -14 11 15 15 15 46 2 90 -38 154 -49
103 -17 -36 22 -43 40 -15 40 9 0 24 5 32 10 11 7 5 8 -20 3 l-35 -6 19 21
c23 27 71 31 62 6 -5 -14 -4 -15 9 -4 24 20 18 30 -19 30 -39 0 -86 -38 -86
-70 0 -20 -1 -20 -30 -5 -36 18 -36 20 -10 52 20 26 19 43 -5 43 -8 0 -11 -7
-8 -20 5 -20 -12 -50 -28 -50 -13 0 -11 34 3 48 9 9 9 12 0 12 -7 0 -9 7 -5
18 6 15 5 15 -10 3 -9 -7 -17 -26 -17 -41 0 -16 -3 -35 -6 -44 -5 -14 -9 -14
-35 1 -34 21 -35 24 -9 48 31 28 26 48 -10 43 -23 -3 -30 -1 -26 9 6 14 -10
19 -17 6z m48 -43 c0 -15 -31 -37 -40 -28 -4 3 -1 16 5 28 12 22 35 23 35 0z"/>
<path d="M1026 673 c-5 -18 -14 -33 -21 -33 -9 0 -9 -11 3 -46 14 -43 14 -48
-2 -59 -15 -12 -15 -13 4 -18 12 -3 24 1 29 11 9 16 10 16 16 0 4 -11 18 -18
33 -18 l26 0 -22 16 c-34 24 -28 94 9 94 28 0 44 -37 30 -69 -11 -24 -10 -25
4 -7 19 25 19 70 1 85 -22 19 -65 -4 -79 -41 -12 -32 -12 -30 -18 42 -4 65 -6
71 -13 43z"/>
<path d="M1290 683 c0 -6 -10 -15 -22 -21 l-23 -11 22 0 c20 -1 23 -6 21 -41
-1 -23 -4 -36 -8 -30 -5 7 -11 6 -19 -4 -11 -13 -9 -16 13 -22 17 -4 26 -13
26 -25 0 -10 5 -19 11 -19 6 0 9 13 7 29 -3 37 17 61 54 61 37 0 46 -24 25
-64 l-17 -31 25 30 c32 38 32 62 1 77 -21 9 -24 16 -19 39 5 28 4 29 -30 29
-19 0 -42 3 -51 6 -9 3 -16 2 -16 -3z m87 -28 c5 -17 -10 -32 -39 -39 -26 -6
-28 -4 -28 24 0 29 2 31 32 28 17 -2 33 -7 35 -13z"/>
<path d="M1440 669 c0 -5 5 -7 10 -4 6 3 10 8 10 11 0 2 -4 4 -10 4 -5 0 -10
-5 -10 -11z"/>
<path d="M1592 663 c-9 -14 -13 -15 -26 -4 -13 11 -19 11 -31 1 -8 -7 -15 -20
-15 -29 -1 -11 -5 -8 -15 9 l-14 25 -1 -23 c0 -35 21 -112 31 -112 5 0 9 27 9
60 0 33 4 60 9 60 11 0 31 -54 31 -82 0 -11 5 -16 10 -13 6 3 10 24 10 46 0
50 16 43 25 -12 4 -25 11 -37 16 -32 11 11 -7 110 -21 118 -5 3 -13 -2 -18
-12z"/>
<path d="M956 608 c-33 -53 -27 -98 12 -98 13 0 13 2 -1 18 -21 23 -21 35 -2
72 18 35 12 40 -9 8z"/>
<path d="M1450 620 c0 -37 14 -90 22 -90 12 0 0 80 -13 95 -6 5 -9 3 -9 -5z"/>
<path d="M1254 525 c-4 -8 -4 -22 0 -30 7 -20 76 -20 102 1 18 15 18 15 -3 5
-12 -6 -30 -11 -41 -11 -21 0 -56 33 -45 43 3 4 3 7 -1 7 -3 0 -9 -7 -12 -15z"/>
<path d="M985 430 c27 -12 43 -12 25 0 -8 5 -22 9 -30 9 -10 0 -8 -3 5 -9z"/>
<path d="M950 419 c0 -18 19 -29 50 -29 11 0 24 -8 29 -17 9 -16 10 -16 11 -2
0 18 -19 29 -50 29 -11 0 -24 8 -29 18 -9 15 -10 15 -11 1z"/>
<path d="M1190 411 c0 -5 5 -13 10 -16 6 -3 10 -2 10 4 0 5 -4 13 -10 16 -5 3
-10 2 -10 -4z"/>
<path d="M1306 391 c-18 -20 -15 -61 5 -61 5 0 4 9 -3 20 -10 16 -10 23 4 37
14 14 18 14 22 2 12 -38 15 -42 13 -15 -3 36 -18 43 -41 17z"/>
<path d="M1100 393 c19 -9 10 -30 -12 -29 -14 1 -24 -6 -26 -16 -4 -22 30 -25
48 -3 14 17 10 47 -8 51 -7 1 -8 0 -2 -3z m-5 -43 c3 -5 -1 -10 -9 -10 -9 0
-16 5 -16 10 0 6 4 10 9 10 6 0 13 -4 16 -10z"/>
<path d="M1131 390 c0 -8 6 -26 14 -40 13 -24 14 -24 20 -5 15 45 16 51 2 33
-13 -17 -15 -16 -25 5 -6 13 -11 16 -11 7z"/>
<path d="M1229 360 l4 -35 9 33 c11 43 26 41 31 -5 l4 -38 1 42 c2 40 1 42
-26 40 -25 -2 -27 -5 -23 -37z"/>
<path d="M1202 355 c0 -16 2 -22 5 -12 2 9 2 23 0 30 -3 6 -5 -1 -5 -18z"/>
<path d="M960 353 c0 -12 5 -25 11 -28 16 -11 17 -2 2 25 -12 24 -13 24 -13 3z"/>
</g>
</svg>
